<svg id="Layer_1" data-name="Layer 1" xmlns="http://www.w3.org/2000/svg" viewBox="0 0 177.87 177.87"><defs><style>.cls-1{fill:#82368c;}.cls-2{fill:#fff;}</style></defs><title>TourismFINAL</title><circle class="cls-1" cx="105.38" cy="117.02" r="88.93" transform="translate(-68.33 80.7) rotate(-45)"/><polygon class="cls-2" points="96.47 75.48 96.47 45.95 96.47 22.14 82.92 22.14 82.92 28.7 51.16 28.7 38.91 43.47 51.16 58.23 82.92 58.23 82.92 63.19 51.16 63.19 38.91 77.96 51.16 92.72 82.92 92.72 82.92 141.43 38.91 141.43 38.91 148.82 141.16 148.82 141.16 141.43 96.47 141.43 96.47 75.48"/><polygon class="cls-2" points="141.16 60.72 128.91 45.95 102.11 45.95 102.11 75.48 128.91 75.48 141.16 60.72"/></svg>